<?xml version="1.0" standalone="no"?>
<!DOCTYPE svg PUBLIC "-//W3C//DTD SVG 1.1//EN"
  "http://www.w3.org/Graphics/SVG/1.1/DTD/svg11.dtd">
<svg xmlns="http://www.w3.org/2000/svg" version="1.1"
     width="731px" height="190px" viewBox="-15 -105 731 200">
  <defs>
    <style type="text/css"><![CDATA[
      .markmap-node {
        cursor: pointer;
      }

      .markmap-node-circle {
        fill: #fff;
        stroke-width: 1.5px;
      }

      .markmap-node-text {
        fill:  #000;
        font: 10px sans-serif;
      }

      .markmap-link {
        fill: none;
      }
    ]]></style>
  </defs>
  <g><path class="markmap-link" stroke="#1f77b4" stroke-width="1.5" d="M468.4482421875,80C498.4482421875,80 498.4482421875,80 528.4482421875,80"></path><path class="markmap-link" stroke="#1f77b4" stroke-width="1.5" d="M258.4482421875,80C288.4482421875,80 288.4482421875,80 318.4482421875,80"></path><path class="markmap-link" stroke="#1f77b4" stroke-width="1.5" d="M136.4482421875,80C166.4482421875,80 166.4482421875,80 196.4482421875,80"></path><path class="markmap-link" stroke="#aec7e8" stroke-width="1.5" d="M389,60C419,60 419,60 449,60"></path><path class="markmap-link" stroke="#aec7e8" stroke-width="1.5" d="M273,60C303,60 303,60 333,60"></path><path class="markmap-link" stroke="#aec7e8" stroke-width="1.5" d="M178,60C208,60 208,60 238,60"></path><path class="markmap-link" stroke="#ff7f0e" stroke-width="1.5" d="M357,40C387,40 387,40 417,40"></path><path class="markmap-link" stroke="#ff7f0e" stroke-width="1.5" d="M241,40C271,40 271,40 301,40"></path><path class="markmap-link" stroke="#ff7f0e" stroke-width="1.5" d="M146,40C176,40 176,40 206,40"></path><path class="markmap-link" stroke="#ffbb78" stroke-width="1.5" d="M563.08203125,20C593.08203125,20 593.08203125,20 623.08203125,20"></path><path class="markmap-link" stroke="#ffbb78" stroke-width="1.5" d="M353.08203125,20C383.08203125,20 383.08203125,20 413.08203125,20"></path><path class="markmap-link" stroke="#ffbb78" stroke-width="1.5" d="M137,20C167,20 167,20 197,20"></path><path class="markmap-link" stroke="#2ca02c" stroke-width="1.5" d="M497,0C527,0 527,0 557,0"></path><path class="markmap-link" stroke="#2ca02c" stroke-width="1.5" d="M287,0C317,0 317,0 347,0"></path><path class="markmap-link" stroke="#2ca02c" stroke-width="1.5" d="M162,0C192,0 192,0 222,0"></path><path class="markmap-link" stroke="#98df8a" stroke-width="1.5" d="M580.4482421875,-20C610.4482421875,-20 610.4482421875,-20 640.4482421875,-20"></path><path class="markmap-link" stroke="#98df8a" stroke-width="1.5" d="M370.4482421875,-20C400.4482421875,-20 400.4482421875,-20 430.4482421875,-20"></path><path class="markmap-link" stroke="#98df8a" stroke-width="1.5" d="M182,-20C212,-20 212,-20 242,-20"></path><path class="markmap-link" stroke="#d62728" stroke-width="1.5" d="M456,-40C486,-40 486,-40 516,-40"></path><path class="markmap-link" stroke="#d62728" stroke-width="1.5" d="M246,-40C276,-40 276,-40 306,-40"></path><path class="markmap-link" stroke="#d62728" stroke-width="1.5" d="M151,-40C181,-40 181,-40 211,-40"></path><path class="markmap-link" stroke="#ff9896" stroke-width="1.5" d="M488,-60C518,-60 518,-60 548,-60"></path><path class="markmap-link" stroke="#ff9896" stroke-width="1.5" d="M278,-60C308,-60 308,-60 338,-60"></path><path class="markmap-link" stroke="#ff9896" stroke-width="1.5" d="M183,-60C213,-60 213,-60 243,-60"></path><path class="markmap-link" stroke="#9467bd" stroke-width="1.5" d="M352,-80C382,-80 382,-80 412,-80"></path><path class="markmap-link" stroke="#9467bd" stroke-width="1.5" d="M236,-80C266,-80 266,-80 296,-80"></path><path class="markmap-link" stroke="#9467bd" stroke-width="1.5" d="M141,-80C171,-80 171,-80 201,-80"></path><path class="markmap-link" stroke="#9467bd" stroke-width="2" d="M30,0C60,0 60,-80 90,-80"></path><path class="markmap-link" stroke="#ff9896" stroke-width="2" d="M30,0C60,0 60,-60 90,-60"></path><path class="markmap-link" stroke="#d62728" stroke-width="2" d="M30,0C60,0 60,-40 90,-40"></path><path class="markmap-link" stroke="#98df8a" stroke-width="2" d="M30,0C60,0 60,-20 90,-20"></path><path class="markmap-link" stroke="#2ca02c" stroke-width="2" d="M30,0C60,0 60,0 90,0"></path><path class="markmap-link" stroke="#ffbb78" stroke-width="2" d="M30,0C60,0 60,20 90,20"></path><path class="markmap-link" stroke="#ff7f0e" stroke-width="2" d="M30,0C60,0 60,40 90,40"></path><path class="markmap-link" stroke="#aec7e8" stroke-width="2" d="M30,0C60,0 60,60 90,60"></path><path class="markmap-link" stroke="#1f77b4" stroke-width="2" d="M30,0C60,0 60,80 90,80"></path><g class="markmap-node" transform="translate(528.4482421875,80)"><rect class="markmap-node-rect" y="-0.75" x="-1" width="120" height="1.5" fill="#1f77b4"></rect><circle class="markmap-node-circle" cx="118" stroke="#1f77b4" r="4.5" style="display: none;"></circle><text class="markmap-node-text" x="10" dy="-5" text-anchor="start" style="fill-opacity: 1;">Petrophysical Software</text></g><g class="markmap-node" transform="translate(318.4482421875,80)"><rect class="markmap-node-rect" y="-0.75" x="-1" width="152" height="1.5" fill="#1f77b4"></rect><circle class="markmap-node-circle" cx="150" stroke="#1f77b4" r="4.5"></circle><text class="markmap-node-text" x="10" dy="-5" text-anchor="start" style="fill-opacity: 1;">Oil &amp; Gas, Renewable Energy</text></g><g class="markmap-node" transform="translate(196.4482421875,80)"><rect class="markmap-node-rect" y="-0.75" x="-1" width="64" height="1.5" fill="#1f77b4"></rect><circle class="markmap-node-circle" cx="62" stroke="#1f77b4" r="4.5"></circle><text class="markmap-node-text" x="10" dy="-5" text-anchor="start" style="fill-opacity: 1;">Montpellier</text></g><g class="markmap-node" transform="translate(90,80)"><rect class="markmap-node-rect" y="-1" x="-1" width="48.4482421875" height="2" fill="#1f77b4"></rect><circle class="markmap-node-circle" cx="46.4482421875" stroke="#1f77b4" r="4.5"></circle><text class="markmap-node-text" x="10" dy="-5" text-anchor="start" style="fill-opacity: 1;">Voxaya</text></g><g class="markmap-node" transform="translate(449,60)"><rect class="markmap-node-rect" y="-0.75" x="-1" width="108" height="1.5" fill="#aec7e8"></rect><circle class="markmap-node-circle" cx="106" stroke="#aec7e8" r="4.5" style="display: none;"></circle><text class="markmap-node-text" x="10" dy="-5" text-anchor="start" style="fill-opacity: 1;">Production Analytics</text></g><g class="markmap-node" transform="translate(333,60)"><rect class="markmap-node-rect" y="-0.75" x="-1" width="58" height="1.5" fill="#aec7e8"></rect><circle class="markmap-node-circle" cx="56" stroke="#aec7e8" r="4.5"></circle><text class="markmap-node-text" x="10" dy="-5" text-anchor="start" style="fill-opacity: 1;">Oil &amp; Gas</text></g><g class="markmap-node" transform="translate(238,60)"><rect class="markmap-node-rect" y="-0.75" x="-1" width="37" height="1.5" fill="#aec7e8"></rect><circle class="markmap-node-circle" cx="35" stroke="#aec7e8" r="4.5"></circle><text class="markmap-node-text" x="10" dy="-5" text-anchor="start" style="fill-opacity: 1;">Paris</text></g><g class="markmap-node" transform="translate(90,60)"><rect class="markmap-node-rect" y="-1" x="-1" width="90" height="2" fill="#aec7e8"></rect><circle class="markmap-node-circle" cx="88" stroke="#aec7e8" r="4.5"></circle><text class="markmap-node-text" x="10" dy="-5" text-anchor="start" style="fill-opacity: 1;">Spot Light Earth</text></g><g class="markmap-node" transform="translate(417,40)"><rect class="markmap-node-rect" y="-0.75" x="-1" width="80" height="1.5" fill="#ff7f0e"></rect><circle class="markmap-node-circle" cx="78" stroke="#ff7f0e" r="4.5" style="display: none;"></circle><text class="markmap-node-text" x="10" dy="-5" text-anchor="start" style="fill-opacity: 1;">Data Analytics</text></g><g class="markmap-node" transform="translate(301,40)"><rect class="markmap-node-rect" y="-0.75" x="-1" width="58" height="1.5" fill="#ff7f0e"></rect><circle class="markmap-node-circle" cx="56" stroke="#ff7f0e" r="4.5"></circle><text class="markmap-node-text" x="10" dy="-5" text-anchor="start" style="fill-opacity: 1;">Oil &amp; Gas</text></g><g class="markmap-node" transform="translate(206,40)"><rect class="markmap-node-rect" y="-0.75" x="-1" width="37" height="1.5" fill="#ff7f0e"></rect><circle class="markmap-node-circle" cx="35" stroke="#ff7f0e" r="4.5"></circle><text class="markmap-node-text" x="10" dy="-5" text-anchor="start" style="fill-opacity: 1;">Paris</text></g><g class="markmap-node" transform="translate(90,40)"><rect class="markmap-node-rect" y="-1" x="-1" width="58" height="2" fill="#ff7f0e"></rect><circle class="markmap-node-circle" cx="56" stroke="#ff7f0e" r="4.5"></circle><text class="markmap-node-text" x="10" dy="-5" text-anchor="start" style="fill-opacity: 1;">Spinergie</text></g><g class="markmap-node" transform="translate(623.08203125,20)"><rect class="markmap-node-rect" y="-0.75" x="-1" width="80" height="1.5" fill="#ffbb78"></rect><circle class="markmap-node-circle" cx="78" stroke="#ffbb78" r="4.5" style="display: none;"></circle><text class="markmap-node-text" x="10" dy="-5" text-anchor="start" style="fill-opacity: 1;">Data Analytics</text></g><g class="markmap-node" transform="translate(413.08203125,20)"><rect class="markmap-node-rect" y="-0.75" x="-1" width="152" height="1.5" fill="#ffbb78"></rect><circle class="markmap-node-circle" cx="150" stroke="#ffbb78" r="4.5"></circle><text class="markmap-node-text" x="10" dy="-5" text-anchor="start" style="fill-opacity: 1;">Oil &amp; Gas, Renewable Energy</text></g><g class="markmap-node" transform="translate(197,20)"><rect class="markmap-node-rect" y="-0.75" x="-1" width="158.08203125" height="1.5" fill="#ffbb78"></rect><circle class="markmap-node-circle" cx="156.08203125" stroke="#ffbb78" r="4.5"></circle><text class="markmap-node-text" x="10" dy="-5" text-anchor="start" style="fill-opacity: 1;">Paris, San Francisco, New York</text></g><g class="markmap-node" transform="translate(90,20)"><rect class="markmap-node-rect" y="-1" x="-1" width="49" height="2" fill="#ffbb78"></rect><circle class="markmap-node-circle" cx="47" stroke="#ffbb78" r="4.5"></circle><text class="markmap-node-text" x="10" dy="-5" text-anchor="start" style="fill-opacity: 1;">Kayrros</text></g><g class="markmap-node" transform="translate(557,0)"><rect class="markmap-node-rect" y="-0.75" x="-1" width="126" height="1.5" fill="#2ca02c"></rect><circle class="markmap-node-circle" cx="124" stroke="#2ca02c" r="4.5" style="display: none;"></circle><text class="markmap-node-text" x="10" dy="-5" text-anchor="start" style="fill-opacity: 1;">Marine Data Intelligence</text></g><g class="markmap-node" transform="translate(347,0)"><rect class="markmap-node-rect" y="-0.75" x="-1" width="152" height="1.5" fill="#2ca02c"></rect><circle class="markmap-node-circle" cx="150" stroke="#2ca02c" r="4.5"></circle><text class="markmap-node-text" x="10" dy="-5" text-anchor="start" style="fill-opacity: 1;">Oil &amp; Gas, Renewable Energy</text></g><g class="markmap-node" transform="translate(222,0)"><rect class="markmap-node-rect" y="-0.75" x="-1" width="67" height="1.5" fill="#2ca02c"></rect><circle class="markmap-node-circle" cx="65" stroke="#2ca02c" r="4.5"></circle><text class="markmap-node-text" x="10" dy="-5" text-anchor="start" style="fill-opacity: 1;">Paris, Brest</text></g><g class="markmap-node" transform="translate(90,0)"><rect class="markmap-node-rect" y="-1" x="-1" width="74" height="2" fill="#2ca02c"></rect><circle class="markmap-node-circle" cx="72" stroke="#2ca02c" r="4.5"></circle><text class="markmap-node-text" x="10" dy="-5" text-anchor="start" style="fill-opacity: 1;">Open Ocean</text></g><g class="markmap-node" transform="translate(640.4482421875,-20)"><rect class="markmap-node-rect" y="-0.75" x="-1" width="54" height="1.5" fill="#98df8a"></rect><circle class="markmap-node-circle" cx="52" stroke="#98df8a" r="4.5" style="display: none;"></circle><text class="markmap-node-text" x="10" dy="-5" text-anchor="start" style="fill-opacity: 1;">Robotics</text></g><g class="markmap-node" transform="translate(430.4482421875,-20)"><rect class="markmap-node-rect" y="-0.75" x="-1" width="152" height="1.5" fill="#98df8a"></rect><circle class="markmap-node-circle" cx="150" stroke="#98df8a" r="4.5"></circle><text class="markmap-node-text" x="10" dy="-5" text-anchor="start" style="fill-opacity: 1;">Oil &amp; Gas, Renewable Energy</text></g><g class="markmap-node" transform="translate(242,-20)"><rect class="markmap-node-rect" y="-0.75" x="-1" width="130.4482421875" height="1.5" fill="#98df8a"></rect><circle class="markmap-node-circle" cx="128.4482421875" stroke="#98df8a" r="4.5"></circle><text class="markmap-node-text" x="10" dy="-5" text-anchor="start" style="fill-opacity: 1;">Paris, Clapier, Frontignan</text></g><g class="markmap-node" transform="translate(90,-20)"><rect class="markmap-node-rect" y="-1" x="-1" width="94" height="2" fill="#98df8a"></rect><circle class="markmap-node-circle" cx="92" stroke="#98df8a" r="4.5"></circle><text class="markmap-node-text" x="10" dy="-5" text-anchor="start" style="fill-opacity: 1;">Forssea Robotics</text></g><g class="markmap-node" transform="translate(516,-40)"><rect class="markmap-node-rect" y="-0.75" x="-1" width="54" height="1.5" fill="#d62728"></rect><circle class="markmap-node-circle" cx="52" stroke="#d62728" r="4.5" style="display: none;"></circle><text class="markmap-node-text" x="10" dy="-5" text-anchor="start" style="fill-opacity: 1;">Robotics</text></g><g class="markmap-node" transform="translate(306,-40)"><rect class="markmap-node-rect" y="-0.75" x="-1" width="152" height="1.5" fill="#d62728"></rect><circle class="markmap-node-circle" cx="150" stroke="#d62728" r="4.5"></circle><text class="markmap-node-text" x="10" dy="-5" text-anchor="start" style="fill-opacity: 1;">Oil &amp; Gas, Renewable Energy</text></g><g class="markmap-node" transform="translate(211,-40)"><rect class="markmap-node-rect" y="-0.75" x="-1" width="37" height="1.5" fill="#d62728"></rect><circle class="markmap-node-circle" cx="35" stroke="#d62728" r="4.5"></circle><text class="markmap-node-text" x="10" dy="-5" text-anchor="start" style="fill-opacity: 1;">Paris</text></g><g class="markmap-node" transform="translate(90,-40)"><rect class="markmap-node-rect" y="-1" x="-1" width="63" height="2" fill="#d62728"></rect><circle class="markmap-node-circle" cx="61" stroke="#d62728" r="4.5"></circle><text class="markmap-node-text" x="10" dy="-5" text-anchor="start" style="fill-opacity: 1;">Fly Instinct</text></g><g class="markmap-node" transform="translate(548,-60)"><rect class="markmap-node-rect" y="-0.75" x="-1" width="141" height="1.5" fill="#ff9896"></rect><circle class="markmap-node-circle" cx="139" stroke="#ff9896" r="4.5" style="display: none;"></circle><text class="markmap-node-text" x="10" dy="-5" text-anchor="start" style="fill-opacity: 1;">Machine Learning Software</text></g><g class="markmap-node" transform="translate(338,-60)"><rect class="markmap-node-rect" y="-0.75" x="-1" width="152" height="1.5" fill="#ff9896"></rect><circle class="markmap-node-circle" cx="150" stroke="#ff9896" r="4.5"></circle><text class="markmap-node-text" x="10" dy="-5" text-anchor="start" style="fill-opacity: 1;">Oil &amp; Gas, Renewable Energy</text></g><g class="markmap-node" transform="translate(243,-60)"><rect class="markmap-node-rect" y="-0.75" x="-1" width="37" height="1.5" fill="#ff9896"></rect><circle class="markmap-node-circle" cx="35" stroke="#ff9896" r="4.5"></circle><text class="markmap-node-text" x="10" dy="-5" text-anchor="start" style="fill-opacity: 1;">Paris</text></g><g class="markmap-node" transform="translate(90,-60)"><rect class="markmap-node-rect" y="-1" x="-1" width="95" height="2" fill="#ff9896"></rect><circle class="markmap-node-circle" cx="93" stroke="#ff9896" r="4.5"></circle><text class="markmap-node-text" x="10" dy="-5" text-anchor="start" style="fill-opacity: 1;">Computation Hub</text></g><g class="markmap-node" transform="translate(412,-80)"><rect class="markmap-node-rect" y="-0.75" x="-1" width="145" height="1.5" fill="#9467bd"></rect><circle class="markmap-node-circle" cx="143" stroke="#9467bd" r="4.5" style="display: none;"></circle><text class="markmap-node-text" x="10" dy="-5" text-anchor="start" style="fill-opacity: 1;">FPSO Integrity maintenance</text></g><g class="markmap-node" transform="translate(296,-80)"><rect class="markmap-node-rect" y="-0.75" x="-1" width="58" height="1.5" fill="#9467bd"></rect><circle class="markmap-node-circle" cx="56" stroke="#9467bd" r="4.5"></circle><text class="markmap-node-text" x="10" dy="-5" text-anchor="start" style="fill-opacity: 1;">Oil &amp; Gas</text></g><g class="markmap-node" transform="translate(201,-80)"><rect class="markmap-node-rect" y="-0.75" x="-1" width="37" height="1.5" fill="#9467bd"></rect><circle class="markmap-node-circle" cx="35" stroke="#9467bd" r="4.5"></circle><text class="markmap-node-text" x="10" dy="-5" text-anchor="start" style="fill-opacity: 1;">Paris</text></g><g class="markmap-node" transform="translate(90,-80)"><rect class="markmap-node-rect" y="-1" x="-1" width="53" height="2" fill="#9467bd"></rect><circle class="markmap-node-circle" cx="51" stroke="#9467bd" r="4.5"></circle><text class="markmap-node-text" x="10" dy="-5" text-anchor="start" style="fill-opacity: 1;">Coldpad</text></g><g class="markmap-node" transform="translate(0,0)"><rect class="markmap-node-rect" y="-3" x="-1" width="32" height="6" fill="#c5b0d5"></rect><circle class="markmap-node-circle" cx="30" stroke="#c5b0d5" r="4.5"></circle><text class="markmap-node-text" x="10" dy="-5" text-anchor="start" style="fill-opacity: 1;">root</text></g></g>
</svg>
